<svg width="20" height="20" viewBox="0 0 20 20" fill="none" xmlns="http://www.w3.org/2000/svg">
<g clip-path="url(#clip0_2072_1321)">
<mask id="mask0_2072_1321" style="mask-type:luminance" maskUnits="userSpaceOnUse" x="0" y="0" width="20" height="20">
<path d="M9.90253 19.3677C7.42062 19.3426 5.04995 18.3343 3.31044 16.5638C1.57093 14.7933 0.604581 12.4052 0.623314 9.92323C0.642048 7.44126 1.64434 5.06803 3.41038 3.324C5.17641 1.57997 7.56203 0.607522 10.044 0.619915C12.526 0.632308 14.9018 1.62853 16.6504 3.39011C18.3989 5.15168 19.3774 7.53481 19.3714 10.0168C19.3653 12.4989 18.3752 14.8772 16.6181 16.6302C14.861 18.3833 12.4804 19.3679 9.99832 19.3682" fill="white"/>
</mask>
<g mask="url(#mask0_2072_1321)">
<path d="M19.5705 1.68661C19.5705 0.988297 19.0075 0.426563 18.3092 0.426563H1.68681C0.988492 0.426563 0.426758 0.988297 0.426758 1.68661V18.309C0.426758 19.0073 0.988492 19.5703 1.68681 19.5703H18.3092C19.0075 19.5703 19.5705 19.0073 19.5705 18.309V1.68661Z" fill="white"/>
<path d="M1.68681 0.426367C0.988492 0.426367 0.426758 1.00217 0.426758 1.71638V6.80762H19.5705V1.71638C19.5705 1.00217 19.0075 0.426367 18.3092 0.426367H1.68681Z" fill="#FF0000"/>
<path d="M18.3105 19.5703C19.0088 19.5703 19.5705 18.9945 19.5705 18.2803V13.1891H0.426758V18.2803C0.426758 18.9945 0.989738 19.5703 1.68805 19.5703H18.3105Z" fill="#353AA0"/>
</g>
</g>
<defs>
<clipPath id="clip0_2072_1321">
<rect width="20" height="20" rx="10" fill="white"/>
</clipPath>
</defs>
</svg>
