<svg width="20" height="20" viewBox="0 0 20 20" fill="none" xmlns="http://www.w3.org/2000/svg">
<g clip-path="url(#clip0_2072_1332)">
<mask id="mask0_2072_1332" style="mask-type:luminance" maskUnits="userSpaceOnUse" x="0" y="0" width="20" height="20">
<path d="M19.7752 9.98796C19.7752 12.5758 18.7463 15.0577 16.9149 16.8876C15.0835 18.7174 12.5996 19.7455 10.0097 19.7455C7.41969 19.7455 4.93579 18.7174 3.1044 16.8876C1.27301 15.0577 0.244141 12.5758 0.244141 9.98796C0.244141 7.40011 1.27301 4.91826 3.1044 3.08837C4.93579 1.25849 7.41969 0.230469 10.0097 0.230469C12.5996 0.230469 15.0835 1.25849 16.9149 3.08837C18.7463 4.91826 19.7752 7.40011 19.7752 9.98796Z" fill="white"/>
</mask>
<g mask="url(#mask0_2072_1332)">
<path d="M0.00878906 19.9881H20.0045V-0.00683594H0.00878906V19.9881Z" fill="#353AA0"/>
<path d="M20.0045 6.99247H12.0062V-0.00683594H8.00707V6.99247H0.00878906V12.9912H8.00707V19.9881H12.0062V12.9912H20.0045V6.99247Z" fill="white"/>
<path d="M20.0045 17.6923L2.30326 -0.00683594H0.00878906V2.30891L17.6925 19.9881H20.0045V17.6923Z" fill="white"/>
<path d="M0.00878906 17.6923L17.7097 -0.00683594H20.0045V2.30891L2.32078 19.9881H0.00878906V17.6923Z" fill="white"/>
<path d="M20.0045 8.24141H11.1732V-0.00683594H8.84009V8.24141H0.00878906V11.7399H8.84009V19.9881H11.1732V11.7399H20.0045V8.24141Z" fill="#FF0000"/>
<path d="M20.0044 19.9314V18.3508L14.6301 12.9912H13.0469L20.0044 19.9314Z" fill="#FF0000"/>
<path d="M20.0042 -0.00683594H18.4233L12.0059 6.39548V6.99247H12.9913L20.0042 -0.00503506" fill="#FF0000"/>
<path d="M6.96869 12.9912L0.00878906 19.9332V19.9884H1.53622L8.00707 13.5327V12.9914H6.96869" fill="#FF0000"/>
<path d="M0.00878906 0.00683594V1.58618L5.42763 6.99259H7.01078L0.00878906 0.00683594Z" fill="#FF0000"/>
</g>
</g>
<defs>
<clipPath id="clip0_2072_1332">
<rect width="20" height="20" rx="10" fill="white"/>
</clipPath>
</defs>
</svg>
