<svg width="45" height="33" viewBox="0 0 45 33" fill="none" xmlns="http://www.w3.org/2000/svg">
<path d="M11.5143 12.8207C11.7658 12.4265 11.973 12.0906 12.1875 11.7475C13.7262 9.35278 15.3389 7.0092 17.2179 4.85543C18.372 3.53397 19.6 2.29282 21.0647 1.3145C21.982 0.693929 22.9659 0.20477 24.083 0.0587521C26.7905 -0.29169 28.7731 0.934858 29.6386 3.49017C30.1564 5.02335 30.2748 6.60765 30.186 8.21384C30.1416 9.01694 30.0455 9.81274 29.9715 10.6231C30.1712 10.3676 30.371 10.1121 30.5707 9.86384C32.3535 7.61517 34.2621 5.48331 36.5036 3.65809C37.5393 2.81849 38.612 2.03729 39.8548 1.51163C40.8091 1.11008 41.793 0.927558 42.8286 1.15388C44.3304 1.48973 45.1811 2.73818 44.9444 4.24216C44.7964 5.18397 44.3895 6.01628 43.8495 6.79017C41.9261 9.56451 39.9879 12.3315 38.3678 15.2957C36.9179 17.9532 35.5493 20.6545 34.1586 23.3486C33.6629 24.3123 33.2191 25.2979 32.5385 26.1594C31.6434 27.2984 30.5633 28.211 29.1504 28.6563C26.9385 29.3499 25.0077 28.8169 23.395 27.2107C22.1374 25.9623 21.4938 24.4072 21.1979 22.6988C20.9168 21.0853 20.9094 19.4645 20.9907 17.8364C20.9907 17.7488 20.9907 17.6685 20.9907 17.5225C20.9094 17.6393 20.8576 17.7123 20.8132 17.7853C19.5556 19.8149 18.5495 21.9687 17.5434 24.1298C16.7519 25.8236 15.9751 27.532 14.9542 29.1163C14.3032 30.1238 13.5561 31.0364 12.5796 31.7592C10.4195 33.3654 6.86859 33.6355 4.37557 31.2481C3.12537 30.0508 2.31902 28.5833 1.70502 26.999C1.04662 25.2906 0.661945 23.5092 0.403026 21.6986C0.151506 19.8149 0.0405408 17.9167 0.0109502 16.0112C-0.0334358 13.6384 0.0479385 11.2802 0.425219 8.92933C0.684138 7.30853 1.07621 5.73154 1.86037 4.26406C2.56314 2.9499 3.54703 1.91318 5.02657 1.46052C6.69844 0.942159 8.31113 1.11008 9.75368 2.1322C10.6932 2.79658 11.174 3.7749 11.4625 4.85543C11.751 5.97247 11.8324 7.11871 11.788 8.25765C11.7362 9.71052 11.6105 11.1561 11.5217 12.6017C11.5217 12.6455 11.5217 12.6893 11.5217 12.7988L11.5143 12.8207Z" fill="white"/>
</svg>
