<svg width="20" height="20" viewBox="0 0 20 20" fill="none" xmlns="http://www.w3.org/2000/svg">
<g clip-path="url(#clip0_2072_1313)">
<path d="M0 9.99984C0 14.2998 2.71389 17.9648 6.52222 19.3776L7.39111 9.99984L6.52222 0.62207C2.71389 2.03485 0 5.69984 0 9.99984Z" fill="#006600"/>
<path d="M20.0002 10C20.0002 4.47778 15.5225 0 10.0002 0C8.77691 0 7.60579 0.22 6.52246 0.622222V19.3778C7.63546 19.7904 8.81318 20.0011 10.0002 20C15.5225 20 20.0002 15.5222 20.0002 10Z" fill="#FF0000"/>
<path d="M6.5213 13.4782C8.44236 13.4782 9.99963 11.9209 9.99963 9.99982C9.99963 8.07882 8.44236 6.52148 6.5213 6.52148C4.60027 6.52148 3.04297 8.07882 3.04297 9.99982C3.04297 11.9209 4.60027 13.4782 6.5213 13.4782Z" fill="#FFDA44"/>
<path d="M4.56543 8.26074V10.4346C4.56543 11.5152 5.44154 12.3913 6.5221 12.3913C7.60265 12.3913 8.47876 11.5152 8.47876 10.4346V8.26074H4.56543Z" fill="#D80027"/>
<path d="M6.52234 11.0871C6.16289 11.0871 5.87012 10.7943 5.87012 10.4349V9.56543H7.17456V10.4349C7.17456 10.7943 6.88178 11.0871 6.52234 11.0871Z" fill="#F0F0F0"/>
</g>
<defs>
<clipPath id="clip0_2072_1313">
<rect width="20" height="20" rx="10" fill="white"/>
</clipPath>
</defs>
</svg>
