<svg width="32" height="32" viewBox="0 0 32 32" fill="none" xmlns="http://www.w3.org/2000/svg">
<g clip-path="url(#clip0_2297_488)">
<path d="M8.26687 29.4155C7.96004 29.4155 7.65554 29.3198 7.39537 29.132C6.9112 28.7808 6.68487 28.1777 6.8167 27.5955L8.61804 19.661L2.50937 14.3037C2.0602 13.9117 1.8887 13.291 2.07304 12.7228C2.25737 12.1558 2.75904 11.7545 3.35287 11.6997L11.4355 10.9658L14.631 3.48751C14.8667 2.93801 15.4034 2.58334 15.9995 2.58334C16.5957 2.58334 17.1324 2.93801 17.368 3.48634L20.5635 10.9658L28.645 11.6997C29.24 11.7533 29.7417 12.1558 29.926 12.7228C30.1104 13.2898 29.94 13.9117 29.4909 14.3037L23.3822 19.6598L25.1835 27.5943C25.3154 28.1777 25.089 28.7808 24.6049 29.1308C24.1219 29.4808 23.4779 29.5077 22.9692 29.202L15.9995 25.037L9.02987 29.2043C8.7942 29.3443 8.5317 29.4155 8.26687 29.4155ZM15.9995 23.2427C16.2644 23.2427 16.5269 23.3138 16.7625 23.4538L23.3402 27.3878L21.6404 19.899C21.519 19.3658 21.6999 18.8093 22.1117 18.4488L27.8797 13.3902L20.2485 12.6972C19.699 12.647 19.2265 12.3017 19.0119 11.7953L15.9995 4.73818L12.9837 11.7965C12.7714 12.2993 12.2989 12.6447 11.7505 12.6948L4.1182 13.3878L9.8862 18.4465C10.2992 18.8082 10.48 19.3635 10.3575 19.8978L8.65887 27.3867L15.2365 23.4538C15.4722 23.3138 15.7347 23.2427 15.9995 23.2427ZM11.3737 11.1105C11.3737 11.1105 11.3737 11.1117 11.3725 11.1128L11.3737 11.1105ZM20.623 11.107L20.6242 11.1093C20.6242 11.1082 20.6242 11.1082 20.623 11.107Z" fill="white"/>
</g>
<defs>
<clipPath id="clip0_2297_488">
<rect width="28" height="28" fill="white" transform="translate(2 2)"/>
</clipPath>
</defs>
</svg>
